# xmcd CD database file
#
# Track frame offsets:
#	200
#	21540
#	56622
#	70695
#	88680
#	102167
#	120575
#	145077
#	159485
#
# Disc length: 2534 seconds
#
# Revision: 1
# Processed by: cddbd v1.4PL0 Copyright (c) Steve Scherf et al.
# Submitted via: CDex 1.50Beta7
#
DISCID=7409e409
DTITLE=Al Copley and The Fabulous Thunderbirds - Good Understanding
DYEAR=1997
DGENRE=Blues
TTITLE0=Doin' It
TTITLE1=Sunshine Moonlight
TTITLE2=Another Woman
TTITLE3=Bad, Bad Whiskey
TTITLE4=Run Riot (Rog's Romp)
TTITLE5=What Do I Do ¿
TTITLE6=A Man and the Blues
TTITLE7=Love Will Heal Me Too
TTITLE8=Good Understanding
EXTD=YEAR: 1997
EXTT0=
EXTT1=
EXTT2=
EXTT3=
EXTT4=
EXTT5=
EXTT6=
EXTT7=
EXTT8=
PLAYORDER=
